<svg version="1.2" baseProfile="tiny-ps" xmlns="http://www.w3.org/2000/svg" viewBox="0 0 13 9" width="13" height="9">
	<title>Player</title>
	<style>
		tspan { white-space:pre }
		.shp0 { fill: #60558f } 
	</style>
	<g id="Player">
		<g id="Volume">
			<g id="Toggle">
				<path id="audio" class="shp0" d="M3.79 7.17L7.75 9.06L7.75 0.06L3.79 2.34L3.79 7.17ZM0.5 3.03L0.5 6.48C0.5 6.86 0.79 7.17 1.16 7.17L3.14 7.17L3.14 2.34L1.16 2.34C0.79 2.34 0.5 2.65 0.5 3.03ZM9.77 1.96L9 2.73C9.37 3.15 9.57 3.69 9.57 4.26C9.57 4.83 9.37 5.37 9 5.78L9.77 6.56C10.31 5.96 10.64 5.15 10.64 4.26C10.64 3.37 10.31 2.56 9.77 1.96ZM11.11 0.62L10.34 1.39C10.67 1.75 10.93 2.17 11.12 2.64C11.33 3.15 11.43 3.7 11.43 4.26C11.43 4.82 11.33 5.37 11.12 5.88C10.93 6.35 10.67 6.76 10.34 7.13L11.11 7.9C11.97 6.95 12.5 5.67 12.5 4.26C12.5 2.85 11.97 1.57 11.11 0.62Z" />
			</g>
		</g>
	</g>
</svg>