<?xml version="1.0" standalone="no"?>
<!DOCTYPE svg PUBLIC "-//W3C//DTD SVG 20010904//EN"
 "http://www.w3.org/TR/2001/REC-SVG-20010904/DTD/svg10.dtd">
<svg version="1.0" xmlns="http://www.w3.org/2000/svg"
 width="225.000000pt" height="225.000000pt" viewBox="0 0 225.000000 225.000000"
 preserveAspectRatio="xMidYMid meet">

<g transform="translate(0.000000,225.000000) scale(0.100000,-0.100000)"
fill="#000000" stroke="none">
<path d="M0 1125 l0 -1125 107 0 c100 0 106 1 85 16 -12 8 -30 30 -39 47 -15
29 -16 116 -15 1060 2 1134 -2 1067 65 1107 l32 20 -117 0 -118 0 0 -1125z"/>
<path d="M295 2241 c17 -4 381 -211 810 -460 1037 -603 965 -558 993 -614 24
-46 24 -47 5 -84 -10 -20 -38 -52 -63 -69 -25 -17 -270 -161 -545 -319 -275
-158 -648 -373 -829 -478 -181 -105 -345 -196 -365 -203 -30 -11 132 -13 957
-14 l992 0 0 1125 0 1125 -992 -1 c-546 -1 -979 -4 -963 -8z"/>
</g>
</svg>
