<svg version="1.2" baseProfile="tiny-ps" xmlns="http://www.w3.org/2000/svg" viewBox="0 0 17 17" width="17" height="17">
	<title>Player</title>
	<style>
		tspan { white-space:pre }
		.shp0 { fill: #ffffff } 
	</style>
	<g id="Player">
		<g id="Top  options">
			<path id="refresh 1" class="shp0" d="M16.4 7.23L13.9 7.23C14 7.65 14.05 8.07 14.05 8.51C14.05 9.26 13.9 9.98 13.61 10.66C13.33 11.32 12.93 11.92 12.42 12.43C11.91 12.94 11.32 13.34 10.66 13.62C9.98 13.9 9.25 14.05 8.5 14.05C7.75 14.05 7.02 13.9 6.34 13.62C5.68 13.34 5.09 12.94 4.58 12.43C4.07 11.92 3.67 11.32 3.39 10.66C3.1 9.98 2.95 9.26 2.95 8.51C2.95 7.76 3.1 7.03 3.39 6.35C3.67 5.69 4.07 5.1 4.58 4.59C5.09 4.08 5.68 3.68 6.34 3.4C7.02 3.11 7.75 2.97 8.5 2.97C9.25 2.97 9.98 3.11 10.66 3.4C10.95 3.52 11.22 3.67 11.49 3.84L9.92 5.4L14.83 5.4L14.83 0.5L13.25 2.08C11.92 1.1 10.28 0.52 8.5 0.52C4.08 0.52 0.5 4.09 0.5 8.51C0.5 12.92 4.08 16.5 8.5 16.5C12.92 16.5 16.5 12.92 16.5 8.51C16.5 8.07 16.46 7.65 16.4 7.23Z" />
		</g>
	</g>
</svg>